<svg width="24" height="24" viewBox="0 0 24 24" fill="none" xmlns="http://www.w3.org/2000/svg">
  <path d="M8 12C8 13.5913 8.63214 15.1174 9.75736 16.2426C10.8826 17.3679 12.4087 18 14 18C15.5913 18 17.1174 17.3679 18.2426 16.2426C19.3679 15.1174 20 13.5913 20 12C20 10.4087 19.3679 8.88258 18.2426 7.75736C17.1174 6.63214 15.5913 6 14 6C12.4087 6 10.8826 6.63214 9.75736 7.75736C8.63214 8.88258 8 10.4087 8 12Z" stroke="#666666" stroke-width="2" stroke-linecap="round" stroke-linejoin="round"/>
  <path d="M4 12C4 14.5461 4.73973 17.0308 6.12563 19.1425C7.51153 21.2541 9.47884 22.8771 11.7974 23.7899C14.1159 24.7028 16.6526 24.8633 19.0633 24.2465C21.474 23.6298 23.6536 22.2657 25.3301 20.3301C27.0065 18.3944 28.1032 15.9867 28.4811 13.4059C28.8591 10.8251 28.5024 8.19505 27.4561 5.84634C26.4098 3.49763 24.7159 1.53119 22.5754 0.18375C20.4349 -1.16369 17.9453 -1.83333 15.4286 -1.75C13.6499 -1.69501 11.8984 -1.27808 10.2847 -0.523458C8.67095 0.231167 7.23037 1.31272 6.05772 2.65912C4.88507 4.00552 4.00574 5.58933 3.47814 7.30394C2.95054 9.01855 2.78658 10.8266 3 12" stroke="#666666" stroke-width="2" stroke-linecap="round" stroke-linejoin="round"/>
  <path d="M8 12C8 13.5913 8.63214 15.1174 9.75736 16.2426C10.8826 17.3679 12.4087 18 14 18C15.5913 18 17.1174 17.3679 18.2426 16.2426C19.3679 15.1174 20 13.5913 20 12C20 10.4087 19.3679 8.88258 18.2426 7.75736C17.1174 6.63214 15.5913 6 14 6C12.4087 6 10.8826 6.63214 9.75736 7.75736C8.63214 8.88258 8 10.4087 8 12Z" stroke="#666666" stroke-width="2" stroke-linecap="round" stroke-linejoin="round"/>
</svg>